<mxfile host="app.diagrams.net" modified="2020-08-10T13:21:09.768Z" agent="5.0 (Windows NT 10.0; WOW64) AppleWebKit/537.36 (KHTML, like Gecko) Chrome/69.0.3497.100 Safari/537.36" etag="vcTPnS17DZRMJlMaEbGz" version="13.6.2" type="github">
  <diagram name="Page-1" id="12e1b939-464a-85fe-373e-61e167be1490">
    <mxGraphModel dx="2551.5" dy="1052" grid="1" gridSize="10" guides="1" tooltips="1" connect="1" arrows="1" fold="1" page="1" pageScale="1.5" pageWidth="1169" pageHeight="826" background="#ffffff" math="0" shadow="0">
      <root>
        <mxCell id="0" />
        <mxCell id="1" parent="0" />
        <mxCell id="eKiz7lQE3QG_yHSLIoef-1" value="Traversable" style="rounded=1;whiteSpace=wrap;html=1;fillColor=#b0e3e6;strokeColor=#0e8088;fontStyle=1" parent="1" vertex="1">
          <mxGeometry x="440" y="130" width="100" height="40" as="geometry" />
        </mxCell>
        <mxCell id="eKiz7lQE3QG_yHSLIoef-2" value="Iterable" style="rounded=1;whiteSpace=wrap;html=1;fillColor=#b0e3e6;strokeColor=#0e8088;fontSize=16;fontStyle=1" parent="1" vertex="1">
          <mxGeometry x="440" y="220" width="100" height="40" as="geometry" />
        </mxCell>
        <mxCell id="eKiz7lQE3QG_yHSLIoef-3" value="Set" style="rounded=1;whiteSpace=wrap;html=1;fillColor=#b0e3e6;strokeColor=#0e8088;fontSize=16;fontStyle=1" parent="1" vertex="1">
          <mxGeometry x="970" y="370" width="100" height="40" as="geometry" />
        </mxCell>
        <mxCell id="eKiz7lQE3QG_yHSLIoef-4" value="Map" style="rounded=1;whiteSpace=wrap;html=1;fillColor=#b0e3e6;strokeColor=#0e8088;fontSize=16;fontStyle=1" parent="1" vertex="1">
          <mxGeometry x="90" y="320" width="100" height="40" as="geometry" />
        </mxCell>
        <mxCell id="eKiz7lQE3QG_yHSLIoef-5" value="" style="endArrow=block;html=1;exitX=0.5;exitY=0;exitDx=0;exitDy=0;endFill=0;fontStyle=1;entryX=0.75;entryY=1;entryDx=0;entryDy=0;" parent="1" source="eKiz7lQE3QG_yHSLIoef-3" target="eKiz7lQE3QG_yHSLIoef-2" edge="1">
          <mxGeometry width="50" height="50" relative="1" as="geometry">
            <mxPoint x="390" y="570" as="sourcePoint" />
            <mxPoint x="510" y="260" as="targetPoint" />
          </mxGeometry>
        </mxCell>
        <mxCell id="eKiz7lQE3QG_yHSLIoef-6" value="" style="endArrow=block;html=1;entryX=0.3;entryY=1;entryDx=0;entryDy=0;exitX=0.5;exitY=0;exitDx=0;exitDy=0;endFill=0;fontStyle=1;entryPerimeter=0;" parent="1" source="eKiz7lQE3QG_yHSLIoef-4" target="eKiz7lQE3QG_yHSLIoef-2" edge="1">
          <mxGeometry width="50" height="50" relative="1" as="geometry">
            <mxPoint x="360" y="320" as="sourcePoint" />
            <mxPoint x="475" y="270" as="targetPoint" />
          </mxGeometry>
        </mxCell>
        <mxCell id="eKiz7lQE3QG_yHSLIoef-7" value="" style="endArrow=block;html=1;entryX=0.5;entryY=1;entryDx=0;entryDy=0;exitX=0.5;exitY=0;exitDx=0;exitDy=0;endFill=0;fontStyle=1" parent="1" source="eKiz7lQE3QG_yHSLIoef-2" target="eKiz7lQE3QG_yHSLIoef-1" edge="1">
          <mxGeometry width="50" height="50" relative="1" as="geometry">
            <mxPoint x="490" y="230" as="sourcePoint" />
            <mxPoint x="560" y="510" as="targetPoint" />
          </mxGeometry>
        </mxCell>
        <mxCell id="eKiz7lQE3QG_yHSLIoef-8" value="HashSet" style="rounded=1;whiteSpace=wrap;html=1;fillColor=#1ba1e2;strokeColor=#006EAF;fontColor=#ffffff;fontSize=16;fontStyle=1" parent="1" vertex="1">
          <mxGeometry x="826.5" y="480" width="100" height="40" as="geometry" />
        </mxCell>
        <mxCell id="eKiz7lQE3QG_yHSLIoef-9" style="rounded=1;orthogonalLoop=1;jettySize=auto;html=1;exitX=0.5;exitY=0;exitDx=0;exitDy=0;entryX=0.5;entryY=1;entryDx=0;entryDy=0;endFill=0;endArrow=block;fontStyle=1;edgeStyle=orthogonalEdgeStyle;curved=1;" parent="1" source="eKiz7lQE3QG_yHSLIoef-10" target="eKiz7lQE3QG_yHSLIoef-3" edge="1">
          <mxGeometry relative="1" as="geometry">
            <Array as="points">
              <mxPoint x="1105" y="470" />
              <mxPoint x="1020" y="470" />
            </Array>
          </mxGeometry>
        </mxCell>
        <mxCell id="eKiz7lQE3QG_yHSLIoef-10" value="ObservableSet" style="rounded=1;whiteSpace=wrap;html=1;fillColor=#b0e3e6;strokeColor=#0e8088;fontSize=16;fontStyle=1" parent="1" vertex="1">
          <mxGeometry x="1040" y="600" width="130" height="40" as="geometry" />
        </mxCell>
        <mxCell id="eKiz7lQE3QG_yHSLIoef-11" style="edgeStyle=none;rounded=1;orthogonalLoop=1;jettySize=auto;html=1;exitX=0.5;exitY=0;exitDx=0;exitDy=0;entryX=0.25;entryY=1;entryDx=0;entryDy=0;dashed=1;endFill=0;endArrow=block;fontStyle=1" parent="1" source="eKiz7lQE3QG_yHSLIoef-12" target="eKiz7lQE3QG_yHSLIoef-3" edge="1">
          <mxGeometry relative="1" as="geometry">
            <mxPoint x="230" y="360" as="targetPoint" />
          </mxGeometry>
        </mxCell>
        <mxCell id="eKiz7lQE3QG_yHSLIoef-12" value="BitSet" style="rounded=1;whiteSpace=wrap;html=1;fillColor=#1ba1e2;strokeColor=#006EAF;fontColor=#ffffff;fontSize=16;fontStyle=1" parent="1" vertex="1">
          <mxGeometry x="940" y="480" width="100" height="40" as="geometry" />
        </mxCell>
        <mxCell id="eKiz7lQE3QG_yHSLIoef-13" style="edgeStyle=none;rounded=1;orthogonalLoop=1;jettySize=auto;html=1;exitX=0.5;exitY=0;exitDx=0;exitDy=0;entryX=1;entryY=1;entryDx=0;entryDy=0;dashed=1;endFill=0;endArrow=block;fontStyle=1" parent="1" source="eKiz7lQE3QG_yHSLIoef-14" target="eKiz7lQE3QG_yHSLIoef-3" edge="1">
          <mxGeometry relative="1" as="geometry" />
        </mxCell>
        <mxCell id="eKiz7lQE3QG_yHSLIoef-14" value="LinkedHashSet" style="rounded=1;whiteSpace=wrap;html=1;fillColor=#1ba1e2;strokeColor=#006EAF;fontColor=#ffffff;fontSize=16;fontStyle=1" parent="1" vertex="1">
          <mxGeometry x="1430" y="480" width="130" height="40" as="geometry" />
        </mxCell>
        <mxCell id="eKiz7lQE3QG_yHSLIoef-15" value="" style="endArrow=block;html=1;entryX=0;entryY=1;entryDx=0;entryDy=0;exitX=0.5;exitY=0;exitDx=0;exitDy=0;endFill=0;dashed=1;fontStyle=1" parent="1" source="eKiz7lQE3QG_yHSLIoef-8" target="eKiz7lQE3QG_yHSLIoef-3" edge="1">
          <mxGeometry width="50" height="50" relative="1" as="geometry">
            <mxPoint x="-60" y="420" as="sourcePoint" />
            <mxPoint x="-10" y="370" as="targetPoint" />
          </mxGeometry>
        </mxCell>
        <mxCell id="eKiz7lQE3QG_yHSLIoef-16" style="edgeStyle=orthogonalEdgeStyle;rounded=1;orthogonalLoop=1;jettySize=auto;html=1;exitX=0.5;exitY=0;exitDx=0;exitDy=0;entryX=0.75;entryY=1;entryDx=0;entryDy=0;fontStyle=1;endFill=0;endArrow=block;curved=1;" parent="1" source="eKiz7lQE3QG_yHSLIoef-18" target="eKiz7lQE3QG_yHSLIoef-3" edge="1">
          <mxGeometry relative="1" as="geometry">
            <Array as="points">
              <mxPoint x="1240" y="600" />
              <mxPoint x="1240" y="470" />
              <mxPoint x="1045" y="470" />
            </Array>
          </mxGeometry>
        </mxCell>
        <mxCell id="eKiz7lQE3QG_yHSLIoef-18" value="SynchronizedSet" style="rounded=1;whiteSpace=wrap;html=1;fillColor=#b0e3e6;strokeColor=#0e8088;fontColor=#000000;fontSize=16;fontStyle=1" parent="1" vertex="1">
          <mxGeometry x="1180" y="600" width="140" height="40" as="geometry" />
        </mxCell>
        <mxCell id="eKiz7lQE3QG_yHSLIoef-19" style="edgeStyle=none;rounded=1;orthogonalLoop=1;jettySize=auto;html=1;exitX=0.5;exitY=0;exitDx=0;exitDy=0;entryX=0.5;entryY=1;entryDx=0;entryDy=0;endFill=0;endArrow=block;fontStyle=1" parent="1" source="eKiz7lQE3QG_yHSLIoef-20" target="eKiz7lQE3QG_yHSLIoef-2" edge="1">
          <mxGeometry relative="1" as="geometry" />
        </mxCell>
        <mxCell id="eKiz7lQE3QG_yHSLIoef-20" value="Seq" style="rounded=1;whiteSpace=wrap;html=1;fillColor=#b0e3e6;strokeColor=#0e8088;fontSize=16;fontStyle=1" parent="1" vertex="1">
          <mxGeometry x="440" y="450" width="100" height="40" as="geometry" />
        </mxCell>
        <mxCell id="eKiz7lQE3QG_yHSLIoef-21" style="edgeStyle=none;rounded=1;orthogonalLoop=1;jettySize=auto;html=1;exitX=0.5;exitY=0;exitDx=0;exitDy=0;entryX=0.25;entryY=1;entryDx=0;entryDy=0;dashed=1;endFill=0;endArrow=block;fontStyle=1" parent="1" source="eKiz7lQE3QG_yHSLIoef-22" target="eKiz7lQE3QG_yHSLIoef-4" edge="1">
          <mxGeometry relative="1" as="geometry" />
        </mxCell>
        <mxCell id="eKiz7lQE3QG_yHSLIoef-22" value="HashMap" style="rounded=1;whiteSpace=wrap;html=1;fillColor=#1ba1e2;strokeColor=#006EAF;fontColor=#ffffff;fontSize=16;fontStyle=1" parent="1" vertex="1">
          <mxGeometry x="-40" y="460" width="100" height="40" as="geometry" />
        </mxCell>
        <mxCell id="eKiz7lQE3QG_yHSLIoef-23" style="edgeStyle=none;rounded=1;orthogonalLoop=1;jettySize=auto;html=1;exitX=0.5;exitY=0;exitDx=0;exitDy=0;entryX=0.5;entryY=1;entryDx=0;entryDy=0;endFill=0;endArrow=block;fontStyle=1" parent="1" source="eKiz7lQE3QG_yHSLIoef-24" target="eKiz7lQE3QG_yHSLIoef-4" edge="1">
          <mxGeometry relative="1" as="geometry" />
        </mxCell>
        <mxCell id="eKiz7lQE3QG_yHSLIoef-24" value="SortedMap" style="rounded=1;whiteSpace=wrap;html=1;fillColor=#b0e3e6;strokeColor=#0e8088;fontSize=16;fontStyle=1" parent="1" vertex="1">
          <mxGeometry x="90" y="460" width="100" height="40" as="geometry" />
        </mxCell>
        <mxCell id="eKiz7lQE3QG_yHSLIoef-25" style="edgeStyle=none;rounded=1;orthogonalLoop=1;jettySize=auto;html=1;exitX=0.5;exitY=0;exitDx=0;exitDy=0;entryX=0.75;entryY=1;entryDx=0;entryDy=0;dashed=1;endFill=0;endArrow=block;fontStyle=1" parent="1" source="eKiz7lQE3QG_yHSLIoef-26" target="eKiz7lQE3QG_yHSLIoef-4" edge="1">
          <mxGeometry relative="1" as="geometry" />
        </mxCell>
        <mxCell id="eKiz7lQE3QG_yHSLIoef-26" value="ListMap" style="rounded=1;whiteSpace=wrap;html=1;fillColor=#1ba1e2;strokeColor=#006EAF;fontColor=#ffffff;fontSize=16;fontStyle=1" parent="1" vertex="1">
          <mxGeometry x="217" y="460" width="100" height="40" as="geometry" />
        </mxCell>
        <mxCell id="eKiz7lQE3QG_yHSLIoef-27" style="edgeStyle=none;rounded=1;orthogonalLoop=1;jettySize=auto;html=1;exitX=0.5;exitY=0;exitDx=0;exitDy=0;entryX=0.25;entryY=1;entryDx=0;entryDy=0;endFill=0;endArrow=block;fontStyle=1" parent="1" source="eKiz7lQE3QG_yHSLIoef-28" target="eKiz7lQE3QG_yHSLIoef-20" edge="1">
          <mxGeometry relative="1" as="geometry" />
        </mxCell>
        <mxCell id="eKiz7lQE3QG_yHSLIoef-28" value="IndexedSeq" style="rounded=1;whiteSpace=wrap;html=1;fillColor=#b0e3e6;strokeColor=#0e8088;fontStyle=1" parent="1" vertex="1">
          <mxGeometry x="340" y="600" width="100" height="40" as="geometry" />
        </mxCell>
        <mxCell id="eKiz7lQE3QG_yHSLIoef-29" style="edgeStyle=none;rounded=1;orthogonalLoop=1;jettySize=auto;html=1;exitX=0.5;exitY=0;exitDx=0;exitDy=0;entryX=0.75;entryY=1;entryDx=0;entryDy=0;endFill=0;endArrow=block;fontStyle=1" parent="1" source="eKiz7lQE3QG_yHSLIoef-30" target="eKiz7lQE3QG_yHSLIoef-20" edge="1">
          <mxGeometry relative="1" as="geometry" />
        </mxCell>
        <mxCell id="eKiz7lQE3QG_yHSLIoef-30" value="LinearSeq" style="rounded=1;whiteSpace=wrap;html=1;fillColor=#b0e3e6;strokeColor=#0e8088;fontSize=16;fontStyle=1" parent="1" vertex="1">
          <mxGeometry x="740" y="620" width="100" height="40" as="geometry" />
        </mxCell>
        <mxCell id="eKiz7lQE3QG_yHSLIoef-31" style="edgeStyle=none;rounded=1;orthogonalLoop=1;jettySize=auto;html=1;exitX=0.5;exitY=0;exitDx=0;exitDy=0;entryX=0;entryY=1;entryDx=0;entryDy=0;dashed=1;endFill=0;endArrow=block;fontStyle=1" parent="1" source="eKiz7lQE3QG_yHSLIoef-32" target="eKiz7lQE3QG_yHSLIoef-28" edge="1">
          <mxGeometry relative="1" as="geometry" />
        </mxCell>
        <mxCell id="eKiz7lQE3QG_yHSLIoef-32" value="ArraySeq" style="rounded=1;whiteSpace=wrap;html=1;fillColor=#1ba1e2;strokeColor=#006EAF;fontColor=#ffffff;fontSize=16;fontStyle=1" parent="1" vertex="1">
          <mxGeometry x="10" y="690" width="90" height="40" as="geometry" />
        </mxCell>
        <mxCell id="eKiz7lQE3QG_yHSLIoef-33" style="edgeStyle=none;rounded=1;orthogonalLoop=1;jettySize=auto;html=1;exitX=0.5;exitY=0;exitDx=0;exitDy=0;entryX=0.25;entryY=1;entryDx=0;entryDy=0;dashed=1;endFill=0;endArrow=block;fontStyle=1" parent="1" source="eKiz7lQE3QG_yHSLIoef-34" target="eKiz7lQE3QG_yHSLIoef-28" edge="1">
          <mxGeometry relative="1" as="geometry" />
        </mxCell>
        <mxCell id="eKiz7lQE3QG_yHSLIoef-34" value="StringBuilder" style="rounded=1;whiteSpace=wrap;html=1;fillColor=#1ba1e2;strokeColor=#006EAF;fontColor=#ffffff;fontSize=16;fontStyle=1" parent="1" vertex="1">
          <mxGeometry x="130" y="690" width="120" height="40" as="geometry" />
        </mxCell>
        <mxCell id="eKiz7lQE3QG_yHSLIoef-35" style="edgeStyle=none;rounded=1;orthogonalLoop=1;jettySize=auto;html=1;exitX=0.5;exitY=0;exitDx=0;exitDy=0;entryX=0.5;entryY=1;entryDx=0;entryDy=0;dashed=1;endFill=0;endArrow=block;fontStyle=1" parent="1" source="eKiz7lQE3QG_yHSLIoef-36" target="eKiz7lQE3QG_yHSLIoef-28" edge="1">
          <mxGeometry relative="1" as="geometry" />
        </mxCell>
        <mxCell id="eKiz7lQE3QG_yHSLIoef-36" value="ArrayBuffer" style="rounded=1;whiteSpace=wrap;html=1;fillColor=#1ba1e2;strokeColor=#006EAF;fontColor=#ffffff;fontSize=16;fontStyle=1" parent="1" vertex="1">
          <mxGeometry x="260" y="800" width="110" height="40" as="geometry" />
        </mxCell>
        <mxCell id="eKiz7lQE3QG_yHSLIoef-39" style="edgeStyle=none;rounded=1;orthogonalLoop=1;jettySize=auto;html=1;exitX=0.5;exitY=0;exitDx=0;exitDy=0;entryX=0.5;entryY=1;entryDx=0;entryDy=0;dashed=1;endFill=0;endArrow=block;fontStyle=1" parent="1" source="eKiz7lQE3QG_yHSLIoef-42" target="M0AZDXnUVYSmUdj07JjT-3" edge="1">
          <mxGeometry relative="1" as="geometry">
            <mxPoint x="497.5" y="690.0000000000002" as="sourcePoint" />
          </mxGeometry>
        </mxCell>
        <mxCell id="eKiz7lQE3QG_yHSLIoef-42" value="ListBuffer" style="rounded=1;whiteSpace=wrap;html=1;fillColor=#1ba1e2;strokeColor=#006EAF;fontColor=#ffffff;fontSize=16;fontStyle=1" parent="1" vertex="1">
          <mxGeometry x="550" y="700" width="105" height="40" as="geometry" />
        </mxCell>
        <mxCell id="eKiz7lQE3QG_yHSLIoef-43" style="edgeStyle=none;rounded=1;orthogonalLoop=1;jettySize=auto;html=1;exitX=0.5;exitY=0;exitDx=0;exitDy=0;entryX=0.25;entryY=1;entryDx=0;entryDy=0;dashed=1;endFill=0;endArrow=block;fontStyle=1" parent="1" source="eKiz7lQE3QG_yHSLIoef-44" target="eKiz7lQE3QG_yHSLIoef-30" edge="1">
          <mxGeometry relative="1" as="geometry" />
        </mxCell>
        <mxCell id="eKiz7lQE3QG_yHSLIoef-44" value="Stream" style="rounded=1;whiteSpace=wrap;html=1;fillColor=#1ba1e2;strokeColor=#006EAF;fontColor=#ffffff;fontSize=16;fontStyle=1" parent="1" vertex="1">
          <mxGeometry x="680" y="700" width="70" height="40" as="geometry" />
        </mxCell>
        <mxCell id="eKiz7lQE3QG_yHSLIoef-45" style="edgeStyle=none;rounded=1;orthogonalLoop=1;jettySize=auto;html=1;exitX=0.5;exitY=0;exitDx=0;exitDy=0;entryX=0.5;entryY=1;entryDx=0;entryDy=0;dashed=1;endFill=0;endArrow=block;fontStyle=1" parent="1" source="eKiz7lQE3QG_yHSLIoef-46" target="eKiz7lQE3QG_yHSLIoef-30" edge="1">
          <mxGeometry relative="1" as="geometry" />
        </mxCell>
        <mxCell id="eKiz7lQE3QG_yHSLIoef-46" value="Queue" style="rounded=1;whiteSpace=wrap;html=1;fillColor=#1ba1e2;strokeColor=#006EAF;fontColor=#ffffff;fontSize=16;fontStyle=1" parent="1" vertex="1">
          <mxGeometry x="780" y="700" width="70" height="40" as="geometry" />
        </mxCell>
        <mxCell id="eKiz7lQE3QG_yHSLIoef-47" style="edgeStyle=none;rounded=1;orthogonalLoop=1;jettySize=auto;html=1;exitX=0.5;exitY=0;exitDx=0;exitDy=0;entryX=0.75;entryY=1;entryDx=0;entryDy=0;dashed=1;endFill=0;endArrow=block;fontStyle=1" parent="1" source="eKiz7lQE3QG_yHSLIoef-48" target="eKiz7lQE3QG_yHSLIoef-30" edge="1">
          <mxGeometry relative="1" as="geometry" />
        </mxCell>
        <mxCell id="eKiz7lQE3QG_yHSLIoef-48" value="Stack" style="rounded=1;whiteSpace=wrap;html=1;fillColor=#1ba1e2;strokeColor=#006EAF;fontColor=#ffffff;fontSize=16;fontStyle=1" parent="1" vertex="1">
          <mxGeometry x="890" y="700" width="70" height="40" as="geometry" />
        </mxCell>
        <mxCell id="eKiz7lQE3QG_yHSLIoef-49" style="edgeStyle=none;rounded=0;orthogonalLoop=1;jettySize=auto;html=1;exitX=0.5;exitY=0;exitDx=0;exitDy=0;fontStyle=1" parent="1" source="eKiz7lQE3QG_yHSLIoef-50" target="eKiz7lQE3QG_yHSLIoef-24" edge="1">
          <mxGeometry relative="1" as="geometry" />
        </mxCell>
        <mxCell id="eKiz7lQE3QG_yHSLIoef-50" value="TreeMap" style="rounded=1;whiteSpace=wrap;html=1;fillColor=#1ba1e2;strokeColor=#006EAF;fontColor=#ffffff;fontSize=16;fontStyle=1" parent="1" vertex="1">
          <mxGeometry x="90" y="530" width="100" height="40" as="geometry" />
        </mxCell>
        <mxCell id="eKiz7lQE3QG_yHSLIoef-51" value="Traversable" style="rounded=1;whiteSpace=wrap;html=1;fillColor=#b0e3e6;strokeColor=#0e8088;fontSize=16;fontStyle=1" parent="1" vertex="1">
          <mxGeometry x="440" y="130" width="100" height="40" as="geometry" />
        </mxCell>
        <mxCell id="eKiz7lQE3QG_yHSLIoef-52" value="IndexedSeq" style="rounded=1;whiteSpace=wrap;html=1;fillColor=#b0e3e6;strokeColor=#0e8088;fontSize=16;fontStyle=1" parent="1" vertex="1">
          <mxGeometry x="340" y="600" width="100" height="40" as="geometry" />
        </mxCell>
        <mxCell id="M0AZDXnUVYSmUdj07JjT-1" value="ImmutableSetAdaptor" style="rounded=1;whiteSpace=wrap;html=1;fillColor=#1ba1e2;strokeColor=#006EAF;fontColor=#ffffff;fontSize=16;fontStyle=1" vertex="1" parent="1">
          <mxGeometry x="1360" y="550" width="190" height="40" as="geometry" />
        </mxCell>
        <mxCell id="M0AZDXnUVYSmUdj07JjT-2" style="edgeStyle=none;rounded=1;orthogonalLoop=1;jettySize=auto;html=1;exitX=0.5;exitY=0;exitDx=0;exitDy=0;entryX=1;entryY=1;entryDx=0;entryDy=0;dashed=1;endFill=0;endArrow=block;fontStyle=1;" edge="1" parent="1" source="M0AZDXnUVYSmUdj07JjT-1" target="eKiz7lQE3QG_yHSLIoef-3">
          <mxGeometry relative="1" as="geometry">
            <mxPoint x="1370" y="520" as="sourcePoint" />
            <mxPoint x="1080" y="420" as="targetPoint" />
          </mxGeometry>
        </mxCell>
        <mxCell id="M0AZDXnUVYSmUdj07JjT-3" value="Buffer" style="rounded=1;whiteSpace=wrap;html=1;fillColor=#b0e3e6;strokeColor=#0e8088;fontSize=16;fontStyle=1" vertex="1" parent="1">
          <mxGeometry x="500" y="610" width="100" height="40" as="geometry" />
        </mxCell>
        <mxCell id="M0AZDXnUVYSmUdj07JjT-4" value="SynchronizedBuffer" style="rounded=1;whiteSpace=wrap;html=1;fillColor=#1ba1e2;strokeColor=#006EAF;fontColor=#ffffff;fontSize=16;fontStyle=1" vertex="1" parent="1">
          <mxGeometry x="400" y="800" width="170" height="40" as="geometry" />
        </mxCell>
      </root>
    </mxGraphModel>
  </diagram>
</mxfile>
